<?xml version="1.0" encoding="utf-8"?>
<!-- Generator: Adobe Illustrator 23.0.2, SVG Export Plug-In . SVG Version: 6.00 Build 0)  -->
<svg version="1.1" id="Слой_1" xmlns="http://www.w3.org/2000/svg" xmlns:xlink="http://www.w3.org/1999/xlink" x="0px" y="0px"
	 viewBox="0 0 129.66 139.68" style="enable-background:new 0 0 129.66 139.68;" xml:space="preserve">
<style type="text/css">
	.st0{fill:#FFFFFF;stroke:#000000;stroke-miterlimit:10;}
	.st1{fill:#3FAADF;}
	.st2{fill:#B0CB24;}
	.st3{fill:#C5D781;}
	.st4{fill:#DAE185;}
	.st5{fill:#ADCB67;}
	.st6{fill:#F29B48;}
	.st7{fill:#E12127;}
	.st8{fill:#FACA7F;}
	.st9{fill:#EC801E;}
	.st10{fill:#F5B172;}
	.st11{fill:#FCD67E;}
</style>
<path class="st0" d="M253.23,294.91"/>
<path class="st0" d="M55.34,398.73"/>
<g>
	<path class="st1" d="M88.85,117.13c1.55,2.87,3.76,5.25,5.7,7.84c0.24,0.31,0.62,0.54,0.58,1.02c-7.36-0.3-12.94-4.64-15.45-11.96
		c-0.82-2.41-1.6-4.84-2.53-7.21c-1.58-4.04-4.48-6.45-8.88-6.93c-1.08-0.12-1.57,0.25-1.78,1.32c-0.2,1.06-0.25,2.12-0.28,3.19
		c-0.21,7.91,0.47,15.78,1.36,23.63c0.15,1.29-0.27,1.32-1.25,1.27c-5.4-0.31-8.25-3.25-8.43-8.68c-0.14-4.1,0.52-8.14,1.11-12.16
		c0.83-5.66,0.55-11.31,0.04-16.93c-1.19-13.13,1.71-24.94,10.36-35.18c3.11-3.69,4.85-8.22,6.57-12.69
		c3.16-8.23,4.76-16.83,5.85-25.53c0.63-5,1.08-10.02,1.6-15.03c0.09-0.83,0.2-1.49,1.31-1.41c3.82,0.27,7.36,1.1,9.65,4.58
		c0,0,0,0,0,0c0.87,2.21,1.2,4.5,0.92,6.85c-0.21,1.8-0.58,3.58-0.88,5.38c-0.06,0.07-0.08,0.14-0.04,0.23
		c-0.4,0.67-0.62,1.4-0.62,2.19l0.01,0c-0.34,0.35-0.57,0.74-0.51,1.25c-0.04,0.18-0.07,0.36-0.11,0.54
		c-0.39,0.46-0.61,0.99-0.59,1.6c-0.6,1.04-0.99,2.16-1.28,3.32c-0.62,0.84-0.86,1.83-1.15,2.8c-0.06,0.06-0.08,0.14-0.05,0.22
		c-0.35,0.36-0.58,0.78-0.61,1.29l0.01,0c-0.46,0.54-0.73,1.17-0.84,1.86c-0.25,0.23-0.38,0.52-0.39,0.86
		c-0.4,0.44-0.63,0.95-0.64,1.56l0.01,0c-0.64,0.71-0.93,1.58-1.21,2.47l0,0c-0.36,0.33-0.53,0.75-0.58,1.23
		c-0.07,0.05-0.09,0.12-0.06,0.2c-0.87,1.48-1.65,3.01-2.16,4.66l0.03-0.01c-0.08,0.11-0.16,0.23-0.24,0.34
		c-0.06,0.08-0.08,0.17-0.06,0.26c-0.33,0.36-0.56,0.77-0.6,1.27l0,0c-2.48,4.91-4.55,9.98-6.36,15.16
		c-1.68,4.79-2.81,9.67-2.45,14.8c0.21,2.99,0.33,6,0.88,8.95c0.72,3.84,1.4,7.7,3.03,11.29c0,0,0,0,0,0
		c0.63,2.53,1.73,4.87,3.03,7.11c-0.03,0.09,0,0.16,0.07,0.22c0.74,1.98,1.82,3.79,3.02,5.52l0,0c-0.05,0.48,0.27,0.73,0.59,0.99
		c-0.02,0.09,0.01,0.17,0.08,0.23c0.25,0.7,0.68,1.29,1.17,1.84c0,0.26-0.02,0.54,0.34,0.59c0.64,0.98,1.12,2.07,2.07,2.81
		c0,0-0.02,0-0.02,0C88.25,116.6,88.46,116.93,88.85,117.13z"/>
	<path class="st2" d="M114.59,15.46c0.15,0.02,0.31,0.03,0.46,0.05c0.46,0.75,1.32,0.69,2.01,0.92c1.01,0.35,1.48,0.67,0.77,1.79
		c-0.38,0.61-0.83,1.28-0.85,2.08c0,0,0.01,0,0.01,0c-0.93,1.11-1.29,2.54-2.11,3.71c-1.3-0.17-1.4-1.5-2.1-2.24
		c-0.73-0.77-1-0.75-1.46,0.17c-1.32,2.65-2.72,5.26-4.07,7.89c-2.39,4.67-4.75,9.36-7.14,14.03c-2.73,5.34-5.44,10.69-8.24,15.99
		c-0.65,1.23-0.23,1.63,0.83,2.13c0.89,0.42,2.05,0.29,2.69,1.25c-1.78,3.54-3.56,7.07-5.33,10.61c-2.27,4.39-4.54,8.78-6.91,13.35
		c-0.92-1.62-0.95-3.14-1.55-4.47c-0.1-0.5-0.16-1-0.3-1.49c-2.26-8.03-2.05-15.9,1.32-23.63c1.39-3.19,2.57-6.48,3.85-9.72
		c0,0-0.01,0-0.01,0c1.76-3.41,3.44-6.86,4.91-10.41l-0.01,0.01c1.45-2.33,2.66-4.79,3.69-7.34c0.12-0.09,0.29-0.16,0.35-0.28
		c2.76-5.4,5.52-10.81,8.27-16.21c0.37-0.73,0.65-1.54,1.74-1.27c0,0,0,0,0,0c0.6,0.64,1.47,0.69,2.22,0.87
		C109.98,13.87,112.05,15.44,114.59,15.46z"/>
	<path class="st3" d="M95.38,63.24c-0.63-0.96-1.79-0.83-2.69-1.25c-1.06-0.5-1.48-0.91-0.83-2.13c2.8-5.3,5.51-10.65,8.24-15.99
		c2.39-4.67,4.75-9.36,7.14-14.03c1.35-2.63,2.74-5.24,4.07-7.89c0.46-0.92,0.73-0.94,1.46-0.17c0.7,0.74,0.81,2.07,2.1,2.24
		c0.01,0.56,0.12,1.06,0.46,1.57c0.59,0.89,1.11,1.83,1.57,2.79c3.47,7.2,3.55,14.73,2.09,22.38c-0.56,2.94-1.29,5.84-1.94,8.76
		c-0.34,1.51-1.47,2.91-0.62,4.57c-0.51,0.06-0.84,0.29-0.92,0.84c-0.19,1.3-0.53,2.59-0.59,3.89c-0.06,1.38-0.62,1.56-1.74,1.09
		c-3.27-1.38-6.66-2.46-9.92-3.9c-1.91-0.85-3.84-1.88-6.05-1.89C96.89,63.23,96.18,63.14,95.38,63.24z"/>
	<path class="st4" d="M81.59,82.73c0.6,1.33,0.64,2.85,1.55,4.47c2.37-4.57,4.64-8.96,6.91-13.35c0.12,0.58,0.61,0.76,1.07,0.99
		c4.94,2.44,9.89,4.87,14.83,7.33c5.7,2.83,11.34,5.81,17.12,8.46c1.95,0.89,2.02,1.87,1.3,3.45c0,0,0,0,0,0
		c-0.69,0.55-1.02,1.32-1.21,2.15c-2.32,3.5-4.78,6.9-7.66,9.97c-0.16,0.17-0.23,0.44-0.34,0.66c-1.34,1.36-2.69,1.01-4.12,0.12
		c-0.57-0.35-1.21-0.75-1.96-0.66c-0.41-0.2-0.69-0.71-1.25-0.59c-0.05-0.24-0.05-0.64-0.17-0.69c-1.45-0.53-2.73-1.6-4.4-1.47
		l0.01,0.01c-0.12-0.32-0.23-0.21-0.33,0.01c-0.19-0.02-0.37-0.03-0.56-0.05c-4.54-4.2-9.77-7.52-14.54-11.42
		c-0.36-0.3-0.9-0.96-1.41-0.66c-0.7,0.42,0.03,1.09,0.02,1.65c-0.01,0.51,0.02,1.02,0.04,1.52c-2.42-0.85-4.62-2.2-6.96-3.23
		c-0.98-0.43-1.12-0.89-0.65-1.85C79.94,87.36,80.95,85.12,81.59,82.73z"/>
	<path class="st5" d="M97.22,64.12c2.21,0.01,4.14,1.04,6.05,1.89c3.26,1.45,6.65,2.52,9.92,3.9c1.12,0.47,1.68,0.29,1.74-1.09
		c0.06-1.3,0.4-2.59,0.59-3.89c0.08-0.55,0.42-0.78,0.92-0.84c0.33,0.12,0.66,0.25,1,0.35c1.54,0.44,2.58,1.31,2.64,3.03
		c-0.02,0.72,0.11,1.4,0.31,2.1c1.65,5.73,2.99,11.51,2.83,17.54c-0.03,1.28-0.21,1.57-1.51,0.96c-6.98-3.3-14-6.52-21.01-9.76
		c-2.35-1.08-4.73-2.09-7.06-3.21c-0.45-0.22-1.33-0.32-0.8-1.4C94.38,70.54,95.77,67.31,97.22,64.12z"/>
	<path class="st2" d="M86.47,94.65c-0.01-0.51-0.05-1.02-0.04-1.52c0.01-0.57-0.72-1.24-0.02-1.65c0.51-0.31,1.05,0.36,1.41,0.66
		c4.77,3.9,10,7.22,14.54,11.42c0.04,0.67,0.49,0.65,0.97,0.59c0.11,0.07,0.23,0.14,0.34,0.21c-0.04,0.4,0.23,0.44,0.52,0.43l0,0
		c-0.02,0.66,0.43,0.65,0.89,0.62c0.62,0.61,0.14,0.75-0.37,0.99c-0.78,0.37-1.66,0.62-2.16,1.43c-0.09-0.02-0.16,0-0.22,0.07
		c-0.47-0.06-0.79,0.15-1.03,0.54c-0.58-0.02-1.02,0.29-1.42,0.66c-0.53-0.04-0.95,0.17-1.27,0.59c-0.12,0.09-0.23,0.18-0.35,0.28
		c-0.38-0.1-0.56,0.23-0.83,0.38c-2.01,0.59-3.79,1.69-5.63,2.63c-0.94,0.48-1.25,0.24-1.41-0.68c-0.18-1-0.41-1.99-0.62-2.99
		c-1.01-4.76-2.03-9.53-3.05-14.29c-0.09-0.11-0.18-0.22-0.26-0.33L86.47,94.65z"/>
	<path class="st6" d="M46.76,43.61c-1.59,1.58-2.93,3.36-4,5.31c-0.8,1.43-1.73,1.85-3.18,1.01c-0.25-0.15-0.58-0.17-0.87-0.25
		c-0.49-0.37-0.74-0.76-0.36-1.4c0.47-0.78,0.82-1.63,1.24-2.45c0.34-0.67,0.49-1.04-0.52-1.41c-1.48-0.53-2.97-1-4.45-1.51
		c-5.18-1.77-10.34-3.57-15.54-5.26c-1.01-0.33-1.39-0.78-1.24-1.77c1.33-4.33,3.21-8.44,5.31-12.44c2.37-4.51,5.13-8.76,8.64-12.48
		c0.1-0.1,0.11-0.28,0.17-0.42c0,0,0.01-0.01,0.01-0.01c2.25-1.96,4.26-4.21,6.85-5.78c0.56-0.34,1.15-0.66,1.67-1.06
		c1-0.78,1.48-0.35,1.88,0.66c1.03,2.6,2.09,5.19,3.19,7.76c0.24,0.56,0.29,1.34,1.11,1.51c-0.19,0.42-0.31,0.77-0.09,1.29
		c2.92,6.83,5.79,13.69,8.71,20.52c0.41,0.96,0.17,1.45-0.71,1.96c-0.9,0.51-2.06,0.7-2.53,1.81
		C49.74,40.03,48.19,41.75,46.76,43.61z"/>
	<path class="st7" d="M54.51,90.38c-3.53-2.1-6.73-4.32-9.8-6.74c-1.04-0.82-2-1.73-3.02-2.57c-2.57-2.09-3.75-4.89-4.11-8.09
		c-0.87-7.75,0.65-14.88,5.51-21.15c4.31-5.55,9.92-7.93,16.89-6.94c3.47,0.49,6.88,1.25,10.29,2.53
		c-4.21,6.57-9.04,12.72-11.71,20.04C55.89,74.75,55.32,82.47,54.51,90.38z"/>
	<path class="st8" d="M33.18,84.59c-2.34,1.61-3.84,4.01-5.75,6.03c-4.25,4.51-8.38,9.13-12.5,13.77c-1.04,1.16-1.36,0.25-1.7-0.44
		c-1.54-3.08-2.78-6.28-3.93-9.52c-0.37-1.04-0.44-2.2-1.18-3.09c-0.87-3.47-1.75-6.93-2.61-10.4c-0.18-0.73-0.34-1.48-0.46-2.22
		c-0.36-2.32-0.33-2.3,1.88-3.19c1.63-0.66,3.37-1.02,4.88-1.96c0.49-0.11,1-0.16,1.47-0.33c5.26-1.89,10.54-3.74,15.76-5.73
		c1.41-0.54,1.81-0.1,2,1.16c0.11,0.7,0.4,1.36,0.53,2.05c0.11,0.58,0.47,0.72,0.98,0.72c-0.54,0.51-0.61,0.98-0.27,1.72
		c0.81,1.76,1.94,3.3,3,4.9c1.4,2.11,1.51,2.17-0.21,4.21C34.43,83.03,33.47,83.54,33.18,84.59z"/>
	<path class="st9" d="M52.04,39.2c0.48-1.11,1.64-1.3,2.53-1.81c0.88-0.5,1.12-0.99,0.71-1.96c-2.92-6.83-5.79-13.69-8.71-20.52
		c-0.22-0.51-0.1-0.87,0.09-1.29c6.13-1.39,12.32-1.37,18.54-0.83c3.45,0.3,6.86,0.89,10.28,1.45c2.07,0.34,2.17,0.46,1.7,2.54
		c-1.8,7.89-3.61,15.77-5.39,23.66c-0.16,0.7-0.39,0.89-1.13,0.79c-1.16-0.16-2.22-0.8-3.42-0.73c-0.77-0.54-1.64-0.6-2.53-0.55
		c0,0-0.04,0-0.04-0.01c-3.27-0.95-6.6-1-9.96-0.73C53.82,39.29,52.92,39.78,52.04,39.2z"/>
	<path class="st10" d="M17.83,35.88c-0.15,0.99,0.23,1.44,1.24,1.77c5.2,1.69,10.36,3.5,15.54,5.26c1.48,0.51,2.97,0.98,4.45,1.51
		c1.02,0.36,0.87,0.74,0.52,1.41c-0.42,0.81-0.77,1.66-1.24,2.45c-0.38,0.64-0.13,1.03,0.36,1.4c-0.72-0.03-1.08,0.29-1.29,1
		c-0.46,1.5-1.02,2.98-1.55,4.46c-0.27,0.75-0.64,1.09-1.6,0.87c-7.46-1.77-14.93-3.47-22.41-5.16c-1.05-0.24-1.34-0.69-1.17-1.82
		c0.63-4.01,1.16-8.04,1.64-12.08c0.15-1.2,0.59-1.52,1.69-1.04c0.61,0.26,1.28,0.36,1.87,0.65C16.8,37,17.41,36.76,17.83,35.88z"/>
	<path class="st9" d="M32.55,71.43c-0.51,0.01-0.86-0.14-0.98-0.72c-0.14-0.69-0.42-1.36-0.53-2.05c-0.2-1.26-0.59-1.7-2-1.16
		c-5.22,1.99-10.49,3.84-15.76,5.73c-0.47,0.17-0.98,0.22-1.47,0.33c-0.78-6.01-1.46-12.02-1.37-18.1c0.02-1.3,0.11-1.9,1.75-1.54
		c6.65,1.45,13.34,2.76,20.02,4.08c1.15,0.23,1.49,0.73,1.31,1.88c-0.53,3.29-0.32,6.6-0.27,9.91
		C33.24,70.43,33.44,71.15,32.55,71.43z"/>
	<path class="st11" d="M33.58,118.22c-1.28-1.56-2.87-2.72-4.64-3.66c-0.92-1.37-2.38-2.14-3.65-3.07
		c-2.05-1.49-3.58-3.41-5.15-5.34c-0.43-0.53-0.2-0.77,0.1-1.15c3.04-3.78,6.14-7.52,9.09-11.37c1.75-2.28,3.74-4.38,5.27-6.84
		c0.62-1,1.42-1.18,2.41-0.42c1.48,1.14,3.06,2.16,4.5,3.35c3.24,2.67,6.77,4.94,10.27,7.23c0.85,0.56,1.06,1.05,0.72,2.11
		c-1.15,3.56-2.38,7.09-3.44,10.68c-1.43,4.83-3.19,9.55-4.72,14.35c-0.35,1.11-0.76,1.18-1.58,0.57c-1.38-1.03-2.74-2.08-4.14-3.09
		c-0.52-0.38-0.97-0.94-1.72-0.87c0,0,0,0.01,0,0.01c-0.61-0.89-1.3-1.67-2.45-1.84c0,0,0.01,0.01,0.01,0.01
		c-0.02-0.4-0.24-0.59-0.64-0.58C33.74,118.23,33.66,118.22,33.58,118.22z"/>
	<path class="st5" d="M103.25,103.58c0.03,0.19,0.06,0.37,0.09,0.55c-0.48,0.06-0.93,0.08-0.97-0.59c0.19,0.02,0.37,0.03,0.56,0.05
		c0.11,0,0.22-0.01,0.33-0.01L103.25,103.58z"/>
	<path class="st5" d="M104.21,104.77c0.37,0.1,0.67,0.3,0.89,0.62C104.64,105.43,104.19,105.43,104.21,104.77z"/>
	<path class="st5" d="M103.69,104.34c0.17,0.14,0.35,0.29,0.52,0.43C103.91,104.78,103.65,104.75,103.69,104.34z"/>
	<path class="st4" d="M86.75,95c-0.19-0.03-0.29-0.13-0.26-0.33C86.57,94.78,86.66,94.89,86.75,95z"/>
</g>
</svg>
